# xmcd
#
# Track frame offsets: 
#        150
#        14050
#        52245
#        77156
#        109999
#        159729
#        193272
#
# Disc length: 2970 seconds
#
# Revision: 0
# Processed by: cddbd v1.5.2PL0 Copyright (c) Steve Scherf et al.
# Submitted via: ExactAudioCopy v0.95b4
#
DISCID=650b9807
DTITLE=Eric Clapton - I Look Wonderful Tonight - CD2
DYEAR=2001
DGENRE=Blues
TTITLE0=Hoochie Coochie Man
TTITLE1=Have You Ever Loved A Woman
TTITLE2=Cocaine
TTITLE3=Wonderful Tonight
TTITLE4=Layla
TTITLE5=Sunshine Of Your Love
TTITLE6=Somewhere Over The Rainbow
EXTD=
EXTT0=
EXTT1=
EXTT2=
EXTT3=
EXTT4=
EXTT5=
EXTT6=
PLAYORDER=
